<svg width="37" height="36" viewBox="0 0 37 36" fill="none" xmlns="http://www.w3.org/2000/svg">
<path fill-rule="evenodd" clip-rule="evenodd" d="M18.5964 0.853668C8.75865 0.853668 0.790527 8.84318 0.790527 18.7073C0.790527 26.6076 5.88746 33.2804 12.9653 35.646C13.8556 35.8022 14.1894 35.2666 14.1894 34.7979C14.1894 34.3739 14.1672 32.9679 14.1672 31.4727C9.69346 32.2984 8.53608 30.3792 8.17996 29.3749C7.97965 28.8616 7.11161 27.2771 6.35486 26.8531C5.73166 26.5183 4.84136 25.6926 6.3326 25.6703C7.73482 25.6479 8.7364 26.9646 9.07026 27.5002C10.6728 30.2006 13.2324 29.4418 14.2562 28.9732C14.412 27.8127 14.8794 27.0316 15.3913 26.5852C11.4295 26.1389 7.28967 24.599 7.28967 17.77C7.28967 15.8284 7.97965 14.2216 9.11477 12.9718C8.93671 12.5255 8.31351 10.6955 9.29283 8.24062C9.29283 8.24062 10.7841 7.77196 14.1894 10.0706C15.6139 9.66891 17.1274 9.46806 18.6409 9.46806C20.1544 9.46806 21.6679 9.66891 23.0924 10.0706C26.4977 7.74964 27.989 8.24062 27.989 8.24062C28.9683 10.6955 28.3451 12.5255 28.167 12.9718C29.3022 14.2216 29.9921 15.8061 29.9921 17.77C29.9921 24.6213 25.83 26.1389 21.8682 26.5852C22.5137 27.1432 23.0701 28.2144 23.0701 29.8882C23.0701 32.2761 23.0479 34.1954 23.0479 34.7979C23.0479 35.2666 23.3817 35.8245 24.272 35.646C27.8067 34.4494 30.8783 32.1715 33.0543 29.1329C35.2303 26.0943 36.4012 22.4481 36.4023 18.7073C36.4023 8.84318 28.4341 0.853668 18.5964 0.853668Z" fill="#FEEDC9"/>
</svg>
