<svg width="272" height="39" viewBox="0 0 272 39" fill="none" xmlns="http://www.w3.org/2000/svg">
<path d="M69.2852 11.4062H78.8301C80.7871 11.4062 82.4688 11.6992 83.875 12.2852C85.293 12.8711 86.3828 13.7383 87.1445 14.8867C87.9062 16.0352 88.2871 17.4473 88.2871 19.123C88.2871 20.4941 88.0527 21.6719 87.584 22.6562C87.127 23.6289 86.4766 24.4434 85.6328 25.0996C84.8008 25.7441 83.8223 26.2598 82.6973 26.6465L81.0273 27.5254H72.7305L72.6953 23.4121H78.8652C79.791 23.4121 80.5586 23.248 81.168 22.9199C81.7773 22.5918 82.2344 22.1348 82.5391 21.5488C82.8555 20.9629 83.0137 20.2832 83.0137 19.5098C83.0137 18.6895 82.8613 17.9805 82.5566 17.3828C82.252 16.7852 81.7891 16.3281 81.168 16.0117C80.5469 15.6953 79.7676 15.5371 78.8301 15.5371H74.5586V37H69.2852V11.4062ZM83.5938 37L77.7578 25.5918L83.3301 25.5566L89.2363 36.7539V37H83.5938ZM109.521 32.8867V37H95.8984V32.8867H109.521ZM97.6211 11.4062V37H92.3477V11.4062H97.6211ZM107.746 21.8301V25.8379H95.8984V21.8301H107.746ZM109.504 11.4062V15.5371H95.8984V11.4062H109.504ZM127.434 28.5098H132.689C132.584 30.2324 132.109 31.7617 131.266 33.0977C130.434 34.4336 129.268 35.4766 127.768 36.2266C126.279 36.9766 124.486 37.3516 122.389 37.3516C120.748 37.3516 119.277 37.0703 117.977 36.5078C116.676 35.9336 115.562 35.1133 114.637 34.0469C113.723 32.9805 113.025 31.6914 112.545 30.1797C112.064 28.668 111.824 26.9746 111.824 25.0996V23.3242C111.824 21.4492 112.07 19.7559 112.562 18.2441C113.066 16.7207 113.781 15.4258 114.707 14.3594C115.645 13.293 116.764 12.4727 118.064 11.8984C119.365 11.3242 120.818 11.0371 122.424 11.0371C124.557 11.0371 126.355 11.4238 127.82 12.1973C129.297 12.9707 130.439 14.0371 131.248 15.3965C132.068 16.7559 132.561 18.3027 132.725 20.0371H127.451C127.393 19.0059 127.188 18.1328 126.836 17.418C126.484 16.6914 125.951 16.1465 125.236 15.7832C124.533 15.4082 123.596 15.2207 122.424 15.2207C121.545 15.2207 120.777 15.3848 120.121 15.7129C119.465 16.041 118.914 16.5391 118.469 17.207C118.023 17.875 117.689 18.7188 117.467 19.7383C117.256 20.7461 117.15 21.9297 117.15 23.2891V25.0996C117.15 26.4238 117.25 27.5898 117.449 28.5977C117.648 29.5938 117.953 30.4375 118.363 31.1289C118.785 31.8086 119.324 32.3242 119.98 32.6758C120.648 33.0156 121.451 33.1855 122.389 33.1855C123.49 33.1855 124.398 33.0098 125.113 32.6582C125.828 32.3066 126.373 31.7852 126.748 31.0938C127.135 30.4023 127.363 29.541 127.434 28.5098ZM141.76 11.4062V37H136.504V11.4062H141.76ZM156.666 27.877H150.145V23.7637H156.666C157.674 23.7637 158.494 23.5996 159.127 23.2715C159.76 22.9316 160.223 22.4629 160.516 21.8652C160.809 21.2676 160.955 20.5938 160.955 19.8438C160.955 19.082 160.809 18.373 160.516 17.7168C160.223 17.0605 159.76 16.5332 159.127 16.1348C158.494 15.7363 157.674 15.5371 156.666 15.5371H151.973V37H146.699V11.4062H156.666C158.67 11.4062 160.387 11.7695 161.816 12.4961C163.258 13.2109 164.359 14.2012 165.121 15.4668C165.883 16.7324 166.264 18.1797 166.264 19.8086C166.264 21.4609 165.883 22.8906 165.121 24.0977C164.359 25.3047 163.258 26.2363 161.816 26.8926C160.387 27.5488 158.67 27.877 156.666 27.877ZM187.076 32.8867V37H173.453V32.8867H187.076ZM175.176 11.4062V37H169.902V11.4062H175.176ZM185.301 21.8301V25.8379H173.453V21.8301H185.301ZM187.059 11.4062V15.5371H173.453V11.4062H187.059Z" fill="#FEEDC9"/>
<path d="M195.426 11.4062V37H190.152V11.4062H195.426ZM205.621 22.3398V26.4531H193.984V22.3398H205.621ZM206.852 11.4062V15.5371H193.984V11.4062H206.852ZM227.084 32.8867V37H213.461V32.8867H227.084ZM215.184 11.4062V37H209.91V11.4062H215.184ZM225.309 21.8301V25.8379H213.461V21.8301H225.309ZM227.066 11.4062V15.5371H213.461V11.4062H227.066ZM247.334 32.8867V37H233.711V32.8867H247.334ZM235.434 11.4062V37H230.16V11.4062H235.434ZM245.559 21.8301V25.8379H233.711V21.8301H245.559ZM247.316 11.4062V15.5371H233.711V11.4062H247.316ZM258.268 37H252.695L252.73 32.8867H258.268C259.65 32.8867 260.816 32.5762 261.766 31.9551C262.715 31.3223 263.43 30.4023 263.91 29.1953C264.402 27.9883 264.648 26.5293 264.648 24.8184V23.5703C264.648 22.2578 264.508 21.1035 264.227 20.1074C263.957 19.1113 263.553 18.2734 263.014 17.5938C262.475 16.9141 261.812 16.4043 261.027 16.0645C260.242 15.7129 259.34 15.5371 258.32 15.5371H252.59V11.4062H258.32C260.031 11.4062 261.596 11.6992 263.014 12.2852C264.443 12.8594 265.68 13.6855 266.723 14.7637C267.766 15.8418 268.568 17.1309 269.131 18.6309C269.705 20.1191 269.992 21.7773 269.992 23.6055V24.8184C269.992 26.6348 269.705 28.293 269.131 29.793C268.568 31.293 267.766 32.582 266.723 33.6602C265.691 34.7266 264.455 35.5527 263.014 36.1387C261.584 36.7129 260.002 37 258.268 37ZM255.684 11.4062V37H250.41V11.4062H255.684Z" fill="#FFBC3F"/>
<path d="M17.9583 1V7.16666" stroke="#FEEDC9" stroke-width="2" stroke-linecap="round" stroke-linejoin="round"/>
<path d="M24.125 1V7.16666" stroke="#FEEDC9" stroke-width="2" stroke-linecap="round" stroke-linejoin="round"/>
<path d="M30.2916 1V7.16666" stroke="#FEEDC9" stroke-width="2" stroke-linecap="round" stroke-linejoin="round"/>
<path d="M8.70839 13.3334H39.5417C39.9506 13.3334 40.3427 13.4958 40.6318 13.7849C40.9209 14.074 41.0834 14.4662 41.0834 14.875V33.375C41.0859 33.9831 40.968 34.5857 40.7365 35.1479C40.505 35.7102 40.1644 36.2211 39.7344 36.6511C39.3044 37.081 38.7936 37.4216 38.2313 37.6531C37.669 37.8847 37.0664 38.0026 36.4584 38H11.7917C11.1836 38.0026 10.5811 37.8847 10.0188 37.6531C9.45652 37.4216 8.94565 37.081 8.51567 36.6511C8.08569 36.2211 7.74512 35.7102 7.51359 35.1479C7.28207 34.5857 7.16418 33.9831 7.16673 33.375V14.875C7.16673 14.4662 7.32915 14.074 7.61827 13.7849C7.90739 13.4958 8.29952 13.3334 8.70839 13.3334Z" stroke="#FEEDC9" stroke-width="2" stroke-linecap="round" stroke-linejoin="round"/>
<path d="M47.25 16.4166L41.0833 21.0416" stroke="#FEEDC9" stroke-width="2" stroke-linecap="round" stroke-linejoin="round"/>
<path d="M1 16.4166L7.16666 21.0416" stroke="#FEEDC9" stroke-width="2" stroke-linecap="round" stroke-linejoin="round"/>
</svg>
