<svg width="49" height="39" viewBox="0 0 49 39" fill="none" xmlns="http://www.w3.org/2000/svg">
<path d="M17.9583 1V7.16666" stroke="#FEEDC9" stroke-width="2" stroke-linecap="round" stroke-linejoin="round"/>
<path d="M24.125 1V7.16666" stroke="#FEEDC9" stroke-width="2" stroke-linecap="round" stroke-linejoin="round"/>
<path d="M30.2916 1V7.16666" stroke="#FEEDC9" stroke-width="2" stroke-linecap="round" stroke-linejoin="round"/>
<path d="M8.70839 13.3334H39.5417C39.9506 13.3334 40.3427 13.4958 40.6318 13.7849C40.9209 14.074 41.0834 14.4662 41.0834 14.875V33.375C41.0859 33.9831 40.968 34.5857 40.7365 35.1479C40.505 35.7102 40.1644 36.2211 39.7344 36.6511C39.3044 37.081 38.7936 37.4216 38.2313 37.6531C37.669 37.8847 37.0664 38.0026 36.4584 38H11.7917C11.1836 38.0026 10.5811 37.8847 10.0188 37.6531C9.45652 37.4216 8.94565 37.081 8.51567 36.6511C8.08569 36.2211 7.74512 35.7102 7.51359 35.1479C7.28207 34.5857 7.16418 33.9831 7.16673 33.375V14.875C7.16673 14.4662 7.32915 14.074 7.61827 13.7849C7.90739 13.4958 8.29952 13.3334 8.70839 13.3334Z" stroke="#FEEDC9" stroke-width="2" stroke-linecap="round" stroke-linejoin="round"/>
<path d="M47.25 16.4166L41.0833 21.0416" stroke="#FEEDC9" stroke-width="2" stroke-linecap="round" stroke-linejoin="round"/>
<path d="M1 16.4166L7.16666 21.0416" stroke="#FEEDC9" stroke-width="2" stroke-linecap="round" stroke-linejoin="round"/>
</svg>
